<svg width="52" height="52" viewBox="0 0 52 52" fill="none" xmlns="http://www.w3.org/2000/svg">
<path d="M22.6842 13.5188C20.5056 13.0358 18.2407 12.781 15.916 12.781C11.1954 12.781 6.72121 13.8316 2.71635 15.7108C1.29206 18.8787 0.5 22.3899 0.5 26.0854C0.5 30.4288 1.59415 34.5177 3.52295 38.0937C5.03928 26.9179 12.5278 17.6294 22.6842 13.5188Z" fill="#112D7A"/>
<path d="M26.0221 51.5002V39.3898C18.8325 39.3898 13.0041 33.5859 13.0041 26.4265C13.0041 25.2191 13.1699 24.0502 13.48 22.9412C9.00057 27.8686 6.09623 34.2424 5.55806 41.2751C10.2115 47.4817 17.6456 51.5002 26.0221 51.5002Z" fill="#112D7A"/>
<path d="M21.9111 25.9286C21.9111 21.966 25.1365 18.7509 29.1192 18.7509C33.0985 18.7509 36.3272 21.9627 36.3272 25.9286H21.9111Z" fill="#112D7A"/>
<path d="M51.5002 25.9131H39.1674C38.5679 15.5101 28.0824 12.0439 26.6208 11.5345C23.2227 10.3338 19.5689 9.68551 15.7656 9.68551C11.9623 9.68551 8.33832 10.3305 4.95353 11.518C9.5607 4.86949 17.267 0.5 25.9764 0.5C35.1908 0.5 43.2757 5.38549 47.7633 12.6922C48.524 13.9293 49.1783 15.2325 49.7198 16.592C50.8691 19.4796 51.5002 22.6253 51.5002 25.9164V25.9131Z" fill="#112D7A"/>
</svg>
